<?xml version="1.0" encoding="UTF-8"?>
<svg width="512" height="512" viewBox="0 0 512 512" xmlns="http://www.w3.org/2000/svg">
  <!-- Background circle -->
  <circle cx="256" cy="256" r="240" fill="#2E5BA8" stroke="#1E3A6F" stroke-width="8"/>
  
  <!-- Map base -->
  <rect x="80" y="120" width="352" height="272" rx="16" fill="#F0F8FF" stroke="#1E3A6F" stroke-width="4"/>
  
  <!-- Roads/paths on the map -->
  <!-- Main highway -->
  <path d="M100 180 L400 220" stroke="#E7721F" stroke-width="8" stroke-linecap="round"/>
  
  <!-- Secondary roads -->
  <path d="M120 200 L380 260" stroke="#FFCD00" stroke-width="6" stroke-linecap="round"/>
  <path d="M140 240 L360 280" stroke="#FFE666" stroke-width="4" stroke-linecap="round"/>
  
  <!-- Buildings -->
  <rect x="160" y="160" width="20" height="25" fill="#DADADA"/>
  <rect x="185" y="155" width="18" height="30" fill="#DADADA"/>
  <rect x="210" y="165" width="22" height="20" fill="#DADADA"/>
  
  <rect x="280" y="240" width="24" height="28" fill="#DADADA"/>
  <rect x="310" y="235" width="20" height="33" fill="#DADADA"/>
  <rect x="335" y="245" width="18" height="23" fill="#DADADA"/>
  
  <!-- Water features -->
  <ellipse cx="180" cy="300" rx="35" ry="15" fill="#AAD3DF"/>
  <ellipse cx="320" cy="320" rx="28" ry="12" fill="#AAD3DF"/>
  
  <!-- Selection rectangle overlay (representing the zoom feature) -->
  <rect x="220" y="200" width="80" height="60" fill="rgba(0, 150, 255, 0.2)" stroke="#0078FF" stroke-width="2" stroke-dasharray="5,5"/>
  
  <!-- Corner markers for selection -->
  <rect x="216" y="196" width="8" height="8" fill="#0078FF"/>
  <rect x="296" y="196" width="8" height="8" fill="#0078FF"/>
  <rect x="216" y="256" width="8" height="8" fill="#0078FF"/>
  <rect x="296" y="256" width="8" height="8" fill="#0078FF"/>
  
  <!-- Magnifying glass icon -->
  <circle cx="380" cy="140" r="18" fill="none" stroke="#1E3A6F" stroke-width="4"/>
  <circle cx="380" cy="140" r="12" fill="rgba(255,255,255,0.3)"/>
  <line x1="393" y1="153" x2="405" y2="165" stroke="#1E3A6F" stroke-width="4" stroke-linecap="round"/>
  
  <!-- Application title -->
  <text x="256" y="450" text-anchor="middle" font-family="Arial, sans-serif" font-size="32" font-weight="bold" fill="white">MAPSCOW</text>
  <text x="256" y="480" text-anchor="middle" font-family="Arial, sans-serif" font-size="20" fill="white">MULE</text>
</svg>
